<svg version="1.1" viewBox="0 0 512.1 512.1" xmlns="http://www.w3.org/2000/svg" xmlns:xlink="http://www.w3.org/1999/xlink" id="Capa_1" overflow="hidden"><path d=" M 236.5 446.2 C 233.2 442.9 227.8 442.9 224.5 446.3 C 221.2 449.7 221.2 455 224.4 458.3 L 234.3 468.2 C 127.6 457.3 45.6 368.8 42.8 261.6 C 40 154.4 117.2 61.7 223.2 45.2 C 227.9 44.5 231 40.1 230.3 35.5 C 229.6 30.9 225.2 27.7 220.6 28.4 L 220.6 28.4 C 105.4 46.2 21.8 147.4 25.8 263.9 C 29.8 380.4 120.2 475.6 236.4 485.5 L 224.5 497.4 C 222.3 499.5 221.4 502.7 222.2 505.7 C 223 508.7 225.3 511 228.3 511.8 C 231.3 512.6 234.4 511.7 236.6 509.5 L 262.2 483.9 C 265.5 480.6 265.5 475.2 262.2 471.8 L 236.5 446.2 Z" stroke="none" stroke-width="1" stroke-dasharray="" stroke-dashoffset="1" fill="#1D93C9" fill-opacity="1"/><path d=" M 486.3 248.1 C 482.3 131.6 391.9 36.4 275.7 26.5 L 287.6 14.6 C 289.2 13 290.1 10.8 290.1 8.6 C 290.1 6.4 289.2 4.2 287.6 2.6 C 286 1 283.8 0.1 281.6 0.1 C 279.4 0.1 277.2 1 275.6 2.6 L 250 28.1 C 246.7 31.4 246.7 36.8 250 40.2 L 275.6 65.8 C 277.7 68 280.9 68.9 283.9 68.1 C 286.9 67.3 289.2 65 290 62 C 290.8 59 289.9 55.9 287.7 53.7 L 277.8 43.8 C 384.5 54.7 466.5 143.2 469.4 250.4 C 472.2 357.6 395 450.3 289 466.8 C 284.6 467.5 281.5 471.4 281.8 475.9 C 282.1 480.4 285.8 483.8 290.3 483.8 C 290.7 483.8 291.2 483.8 291.6 483.7 C 406.7 465.8 490.3 364.6 486.3 248.1 Z" stroke="none" stroke-width="1" stroke-dasharray="" stroke-dashoffset="1" fill="#1D93C9" fill-opacity="1"/><g><g><path d=" M 325 296.3 C 324.8 296.3 290.8 297.1 285.6 260.9 C 298 252.2 308 238.1 313.6 220.8 C 313.8 222.5 314 224.2 314.1 225.9 C 314.3 228.8 316.2 231.3 319 232.2 C 319.7 232.4 320.4 232.5 321.1 232.5 C 323.2 232.5 325.3 231.5 326.7 229.8 C 338.7 214.4 344.9 194.4 344.2 173.5 C 343.5 152.9 336.3 133.6 323.9 119.1 C 311.2 104.3 294.5 96.1 276.7 96 C 275.8 96 273.2 96.1 272.7 96.1 C 263.5 91.8 253.7 89.9 243.7 90.2 C 223.2 90.9 204.3 101.1 190.6 119 C 177.2 136.5 170.2 159.4 170.9 183.4 C 171 187.5 171.4 191.2 171.9 194.8 C 173.3 205 176.1 214.8 180.3 223.9 C 181.4 226.3 183.7 227.8 186.3 228 C 188.9 228.2 191.4 226.9 192.7 224.6 C 193.6 223.2 194.7 221.4 196 219.7 C 196.5 219.1 196.9 218.5 197.4 217.9 C 201.2 230.8 207.4 242.4 215.5 251.3 C 218.9 255.1 222.5 258.3 226.4 261 C 220.5 297.5 187.3 296.3 187 296.3 C 162.2 297.2 142.2 317.6 142.2 342.7 L 142.2 394.5 C 142.2 398.4 145.4 401.5 149.2 401.5 L 362.8 401.5 C 366.7 401.5 369.8 398.3 369.8 394.5 L 369.8 342.7 C 369.8 317.6 349.9 297.2 325 296.3 Z M 197.3 198.2 C 197.1 198.4 190.9 203.8 188.7 206.3 C 187.4 201.9 186.5 197.4 185.8 192.8 C 185.3 189.7 185.1 186.5 185 182.9 C 184.3 162.1 190.3 142.5 201.8 127.5 C 213 113 228 104.7 244.2 104.2 C 244.7 104.2 256.3 103.5 268.3 109.5 C 269.3 110 270.6 110.3 271.7 110.2 C 271.8 110.2 276.4 110 276.5 110 C 290.1 110.1 303.2 116.6 313.2 128.2 C 323.6 140.2 329.6 156.5 330.1 173.8 C 330.5 185 328.5 195.7 324.6 205.4 C 323.4 201.7 322 198.1 320.4 194.5 C 312.1 176.9 298.2 163.3 281.2 156.2 C 279.4 155.5 277.4 155.5 275.7 156.2 C 273.9 157 272.6 158.4 271.9 160.2 C 270.7 163.4 269.3 166.6 267.6 169.6 C 262.7 178.4 252.9 183.6 242 183.2 C 240.5 183.1 239 183.1 237.5 183.2 C 230.1 183.4 222.9 184.8 216.1 187.4 C 209.3 190 203 193.6 197.3 198.2 Z M 209.2 206.9 C 212.9 204.3 216.9 202.2 221.1 200.6 C 226.5 198.6 232.2 197.5 238 197.3 C 239.2 197.3 242.7 197.3 243.2 197.3 C 258.8 197.3 272.8 189.4 280 176.5 C 280.8 175.1 281.5 173.7 282.2 172.3 C 291.3 177.5 299 185.2 304.7 194.7 C 304.6 195.1 304.5 195.5 304.5 195.9 C 303.1 212.8 297.3 228.4 288 239.7 C 279.1 250.6 267.8 256.5 256.1 256.5 C 234.3 256.6 215.1 235.9 209.2 206.9 Z M 239.6 267.8 C 244.9 269.7 250.4 270.6 256 270.6 C 261.7 270.6 267.2 269.6 272.5 267.7 C 275.6 283.4 285.7 296.6 299.3 303.9 C 294.5 323.6 276.7 337.8 256 337.8 C 235.3 337.8 217.5 323.5 212.7 303.9 C 226.4 296.7 236.5 283.5 239.6 267.8 Z M 156.3 387.4 L 156.3 342.6 C 156.3 324.8 170.8 310.3 188.6 310.3 C 188.9 310.3 195.4 310.1 199.5 309 C 206.4 334 229.4 352 256 352 C 282.6 352 305.6 334 312.5 309 C 316.5 310.1 323.1 310.3 323.4 310.3 C 341.2 310.3 355.7 324.8 355.7 342.6 L 355.7 387.4 L 156.3 387.4 Z" stroke="none" stroke-width="1" stroke-dasharray="" stroke-dashoffset="1" fill="#1D93C9" fill-opacity="1"/></g></g></svg>