<!-- Generator: Adobe Illustrator 18.1.0, SVG Export Plug-In  -->
<svg version="1.1"
	 xmlns="http://www.w3.org/2000/svg" xmlns:xlink="http://www.w3.org/1999/xlink" xmlns:a="http://ns.adobe.com/AdobeSVGViewerExtensions/3.0/"
	 x="0px" y="0px" width="58.7px" height="98.7px" viewBox="0 0 58.7 98.7" enable-background="new 0 0 58.7 98.7"
	 xml:space="preserve">
<defs>
</defs>
<g>
	<polygon fill="#FFF200" points="51.1,1.2 57.5,1.2 57.5,87 1.2,87 1.2,69.5 	"/>
	<polygon fill="#ED1C24" points="1.2,1.2 1.2,69.4 51.1,1.2 	"/>
	<g>
		<path d="M0,0v88.1h58.7V0H0z M56.4,2.3c0,2.2,0,81.3,0,83.5c-2.2,0-51.9,0-54.1,0c0-2.2,0-81.3,0-83.5C4.5,2.3,54.2,2.3,56.4,2.3z
			"/>
	</g>
	<polygon fill="#0095DA" points="50.2,2.3 0.1,70.8 5.9,71.1 49.8,11.6 	"/>
	<polygon points="44,42.8 21,27.6 45.9,15.1 	"/>
	<polygon points="42.6,68.1 25.6,68.1 34.1,53.2 	"/>
	<path fill="#ED1C24" d="M30,76.5c0-3.5,7.8-3.2,10.9,0H30z"/>
	<path d="M3.2,97.4l-0.9,1.2H0l4.3-5.8H6l4.2,5.8H8l-0.9-1.2H3.2z M5.1,94.4L5.1,94.4l-1.3,2h2.6L5.1,94.4z"/>
	<path d="M17.7,97.6h3.1v1h-5.2v-5.6h2.2V97.6z"/>
	<path d="M29.7,98.5h-2.2v-4.7h-2.2v-1h6.7v1h-2.2V98.5z"/>
	<path d="M39.5,93.9v1.2h3.5v1h-3.5v1.5H43v1h-5.8v-5.6H43v1H39.5z"/>
	<path d="M49.1,92.8h1.6l5.9,3.9h0v-3.8h2.2v5.7h-1.6l-5.9-3.9h0v3.8h-2.2V92.8z"/>
</g>
</svg>
