<?xml version="1.0" encoding="utf-8"?>
<!-- Generator: Adobe Illustrator 21.0.2, SVG Export Plug-In . SVG Version: 6.00 Build 0)  -->
<svg version="1.1" id="Calque_1" xmlns="http://www.w3.org/2000/svg" xmlns:xlink="http://www.w3.org/1999/xlink" x="0px" y="0px"
	 viewBox="0 0 410.3 682.5" style="enable-background:new 0 0 410.3 682.5;" xml:space="preserve">
<style type="text/css">
	.st0{fill:#FFED00;}
	.st1{fill:#E30613;}
	.st2{fill:#008BD2;}
</style>
<polygon class="st0" points="345.4,29.2 386.8,29.2 386.8,580.8 24.5,580.8 24.5,468.6 "/>
<polygon class="st1" points="24.3,29 24.5,467.7 345.4,29.2 "/>
<g>
	<path d="M16.9,21.6v566.6h377.6V21.6H16.9z M379.6,36.5c0,14.3,0,522.5,0,536.8c-14,0-333.8,0-347.8,0c0-14.3,0-522.5,0-536.8
		C45.8,36.5,365.6,36.5,379.6,36.5z"/>
</g>
<polygon class="st2" points="340,36.5 17.6,476.8 55.1,478.5 337.2,96 "/>
<polygon points="300.1,296.7 152,198.8 311.8,118.8 "/>
<polygon points="291,459.5 181.5,459.5 236.5,364 "/>
<path class="st1" d="M210,513.2c0.2-22.5,49.9-20.7,70.4,0H210z"/>
<path d="M37.6,647.7l-5.9,7.6H17l27.9-37h10.8l27.2,37H68l-5.5-7.6H37.6z M49.7,628.8h-0.2l-7.9,13.1h17L49.7,628.8z"/>
<path d="M130.6,649.2h19.8v6.1h-33.7v-36h14V649.2z"/>
<path d="M207.6,655.3h-14v-29.9h-14.4v-6.1H222v6.1h-14.4V655.3z"/>
<path d="M270.6,625.3v7.9h22.2v6.1h-22.2v9.8h23.1v6.1h-37.1v-36h37.1v6.1H270.6z"/>
<path d="M332.4,618.3h10.1l37.7,25.2h0.2v-24.2h14V656h-10.1l-37.7-25.2h-0.2v24.5h-14V618.3z"/>
</svg>
