<svg id="Calque_1" data-name="Calque 1" xmlns="http://www.w3.org/2000/svg" viewBox="0 0 410.31 682.47"><defs><style>.cls-1{fill:#fff;}.cls-2{fill:#ffed00;}.cls-3{fill:#e30613;}.cls-4{fill:none;stroke:#fff;stroke-width:11.15px;}.cls-5{fill:#040603;}.cls-6{fill:#008bd2;}</style></defs><title>Plan de travail 1</title><rect class="cls-1" x="7.93" y="13.4" width="394.13" height="584.54"/><path id="path3792" class="cls-2" d="M344.61,29.13h41.27V579.45H24.51V467.55Z"/><path id="path3796" class="cls-3" d="M24.32,29l.19,437.63L344.59,29.13Z"/><g id="g3806"><path id="path3808" class="cls-4" d="M386.12,20.54H15.85V587.81H394.58V20.54Z"/></g><path id="path3812" class="cls-5" d="M31.75,579.35V29l-7.43,7.43h361.8L378.69,29V579.35l7.43-7.43H24.32Zm361.81,0V21.57H16.89v565.2H393.55Z"/><path id="path3816" class="cls-6" d="M339.21,36.5,17.62,475.73,55,477.43,336.39,95.82Z"/><path id="path3820" class="cls-5" d="M299.41,296,151.63,198.37l159.43-79.85Z"/><path id="path3824" class="cls-5" d="M290.29,458.4l-109.21,0,54.86-95.28Z"/><g id="g3834"><path id="path3836" class="cls-3" d="M209.54,512c.24-22.47,49.78-20.64,70.2,0Z"/></g><g id="g3838"><path id="path3840" class="cls-1" d="M47.05,627.21h-.19l-8,13.24h17.2Zm-12.2,19-6,7.69H14l28.24-37.41h11l27.47,37.41H65.59L60,646.25Z"/></g><g id="g3842"><path id="path3844" class="cls-1" d="M128.87,647.75h20v6.18h-34.1V617.49h14.12Z"/></g><g id="g3846"><path id="path3848" class="cls-1" d="M206.65,653.93H192.53V623.68h-14.6v-6.19h43.32v6.19h-14.6Z"/></g><g id="g3850"><path id="path3852" class="cls-1" d="M270.32,623.68v8H292.8v6.18H270.32v9.85h23.34v6.18H256.2V617.49h37.46v6.19Z"/></g><g id="g3854"><path id="path3856" class="cls-1" d="M332.83,616.53H343L381.14,642h.19V617.49h14.12v37.17H385.27l-38.13-25.47H347v24.74H332.83Z"/></g></svg>